<mxfile host="Electron" modified="2024-04-26T13:17:18.357Z" agent="Mozilla/5.0 (Windows NT 10.0; Win64; x64) AppleWebKit/537.36 (KHTML, like Gecko) draw.io/24.1.0 Chrome/120.0.6099.109 Electron/28.1.0 Safari/537.36" etag="TJi0_iHZuimFoKXJRrAT" version="24.1.0" type="device">
  <diagram id="plJpAGmWLjXe8Xz67yxv" name="Página-1">
    <mxGraphModel dx="880" dy="532" grid="1" gridSize="10" guides="1" tooltips="1" connect="1" arrows="1" fold="1" page="1" pageScale="1" pageWidth="827" pageHeight="1169" math="0" shadow="0">
      <root>
        <mxCell id="0" />
        <mxCell id="1" parent="0" />
        <mxCell id="dSzfsb9VWE610NWKicuW-9" style="edgeStyle=none;rounded=0;orthogonalLoop=1;jettySize=auto;html=1;endArrow=oval;endFill=0;" parent="1" source="dSzfsb9VWE610NWKicuW-1" target="dSzfsb9VWE610NWKicuW-5" edge="1">
          <mxGeometry relative="1" as="geometry" />
        </mxCell>
        <mxCell id="dSzfsb9VWE610NWKicuW-1" value="Profesor" style="whiteSpace=wrap;html=1;" parent="1" vertex="1">
          <mxGeometry x="110" y="110" width="120" height="60" as="geometry" />
        </mxCell>
        <mxCell id="dSzfsb9VWE610NWKicuW-5" value="Id" style="text;strokeColor=none;fillColor=none;spacingLeft=4;spacingRight=4;overflow=hidden;rotatable=0;points=[[0,0.5],[1,0.5]];portConstraint=eastwest;fontSize=12;" parent="1" vertex="1">
          <mxGeometry x="15" y="125" width="30" height="30" as="geometry" />
        </mxCell>
        <mxCell id="dSzfsb9VWE610NWKicuW-10" style="edgeStyle=none;rounded=0;orthogonalLoop=1;jettySize=auto;html=1;endArrow=oval;endFill=1;" parent="1" source="dSzfsb9VWE610NWKicuW-1" target="dSzfsb9VWE610NWKicuW-15" edge="1">
          <mxGeometry relative="1" as="geometry">
            <mxPoint x="110" y="135" as="sourcePoint" />
            <mxPoint x="70" y="130" as="targetPoint" />
          </mxGeometry>
        </mxCell>
        <mxCell id="dSzfsb9VWE610NWKicuW-15" value="Nombre" style="text;strokeColor=none;fillColor=none;spacingLeft=4;spacingRight=4;overflow=hidden;rotatable=0;points=[[0,0.5],[1,0.5]];portConstraint=eastwest;fontSize=12;" parent="1" vertex="1">
          <mxGeometry x="30" y="140" width="60" height="30" as="geometry" />
        </mxCell>
        <mxCell id="dSzfsb9VWE610NWKicuW-16" style="edgeStyle=none;rounded=0;orthogonalLoop=1;jettySize=auto;html=1;endArrow=oval;endFill=1;" parent="1" source="dSzfsb9VWE610NWKicuW-1" target="dSzfsb9VWE610NWKicuW-17" edge="1">
          <mxGeometry relative="1" as="geometry">
            <mxPoint x="110" y="185" as="sourcePoint" />
            <mxPoint x="60" y="220" as="targetPoint" />
          </mxGeometry>
        </mxCell>
        <mxCell id="dSzfsb9VWE610NWKicuW-17" value="Correo &#xa;Institucional" style="text;strokeColor=none;fillColor=none;spacingLeft=4;spacingRight=4;overflow=hidden;rotatable=0;points=[[0,0.5],[1,0.5]];portConstraint=eastwest;fontSize=12;" parent="1" vertex="1">
          <mxGeometry x="30" y="190" width="80" height="40" as="geometry" />
        </mxCell>
        <mxCell id="dSzfsb9VWE610NWKicuW-19" style="edgeStyle=none;rounded=0;orthogonalLoop=1;jettySize=auto;html=1;endArrow=oval;endFill=1;" parent="1" source="dSzfsb9VWE610NWKicuW-1" target="dSzfsb9VWE610NWKicuW-20" edge="1">
          <mxGeometry relative="1" as="geometry">
            <mxPoint x="110" y="160" as="sourcePoint" />
            <mxPoint x="70" y="160" as="targetPoint" />
          </mxGeometry>
        </mxCell>
        <mxCell id="dSzfsb9VWE610NWKicuW-20" value="Apellidos" style="text;strokeColor=none;fillColor=none;spacingLeft=4;spacingRight=4;overflow=hidden;rotatable=0;points=[[0,0.5],[1,0.5]];portConstraint=eastwest;fontSize=12;" parent="1" vertex="1">
          <mxGeometry y="155" width="60" height="30" as="geometry" />
        </mxCell>
        <mxCell id="dSzfsb9VWE610NWKicuW-24" style="edgeStyle=none;rounded=0;orthogonalLoop=1;jettySize=auto;html=1;endArrow=oval;endFill=1;" parent="1" source="dSzfsb9VWE610NWKicuW-1" target="dSzfsb9VWE610NWKicuW-25" edge="1">
          <mxGeometry relative="1" as="geometry">
            <mxPoint x="200" y="280" as="sourcePoint" />
            <mxPoint x="160" y="280" as="targetPoint" />
          </mxGeometry>
        </mxCell>
        <mxCell id="dSzfsb9VWE610NWKicuW-25" value="DNI" style="text;strokeColor=none;fillColor=none;spacingLeft=4;spacingRight=4;overflow=hidden;rotatable=0;points=[[0,0.5],[1,0.5]];portConstraint=eastwest;fontSize=12;" parent="1" vertex="1">
          <mxGeometry x="110" y="195" width="40" height="30" as="geometry" />
        </mxCell>
        <mxCell id="dSzfsb9VWE610NWKicuW-26" style="edgeStyle=none;rounded=0;orthogonalLoop=1;jettySize=auto;html=1;endArrow=oval;endFill=1;" parent="1" source="dSzfsb9VWE610NWKicuW-1" target="dSzfsb9VWE610NWKicuW-27" edge="1">
          <mxGeometry relative="1" as="geometry">
            <mxPoint x="220" y="280" as="sourcePoint" />
            <mxPoint x="110" y="50" as="targetPoint" />
          </mxGeometry>
        </mxCell>
        <mxCell id="dSzfsb9VWE610NWKicuW-27" value="Activo" style="text;strokeColor=none;fillColor=none;spacingLeft=4;spacingRight=4;overflow=hidden;rotatable=0;points=[[0,0.5],[1,0.5]];portConstraint=eastwest;fontSize=12;" parent="1" vertex="1">
          <mxGeometry x="80" y="65" width="50" height="30" as="geometry" />
        </mxCell>
        <mxCell id="dSzfsb9VWE610NWKicuW-28" style="edgeStyle=none;rounded=0;orthogonalLoop=1;jettySize=auto;html=1;endArrow=oval;endFill=1;" parent="1" source="dSzfsb9VWE610NWKicuW-1" target="dSzfsb9VWE610NWKicuW-29" edge="1">
          <mxGeometry relative="1" as="geometry">
            <mxPoint x="90" y="110" as="sourcePoint" />
            <mxPoint x="90" y="70" as="targetPoint" />
          </mxGeometry>
        </mxCell>
        <mxCell id="dSzfsb9VWE610NWKicuW-29" value="Perfil Acceso" style="text;strokeColor=none;fillColor=none;spacingLeft=4;spacingRight=4;overflow=hidden;rotatable=0;points=[[0,0.5],[1,0.5]];portConstraint=eastwest;fontSize=12;" parent="1" vertex="1">
          <mxGeometry x="10" y="95" width="80" height="30" as="geometry" />
        </mxCell>
        <mxCell id="dSzfsb9VWE610NWKicuW-30" value="Perfil Usuario" style="whiteSpace=wrap;html=1;" parent="1" vertex="1">
          <mxGeometry x="110" y="380" width="120" height="60" as="geometry" />
        </mxCell>
        <mxCell id="dSzfsb9VWE610NWKicuW-32" value="" style="fontSize=12;html=1;endArrow=ERmandOne;startArrow=ERmandOne;rounded=0;entryX=0.5;entryY=1;entryDx=0;entryDy=0;exitX=0.5;exitY=0;exitDx=0;exitDy=0;" parent="1" source="dSzfsb9VWE610NWKicuW-30" target="dSzfsb9VWE610NWKicuW-1" edge="1">
          <mxGeometry width="100" height="100" relative="1" as="geometry">
            <mxPoint x="160" y="470" as="sourcePoint" />
            <mxPoint x="260" y="290" as="targetPoint" />
          </mxGeometry>
        </mxCell>
        <mxCell id="dSzfsb9VWE610NWKicuW-35" style="edgeStyle=none;rounded=0;orthogonalLoop=1;jettySize=auto;html=1;endArrow=oval;endFill=1;entryX=1;entryY=0.5;entryDx=0;entryDy=0;exitX=0;exitY=0.5;exitDx=0;exitDy=0;" parent="1" source="dSzfsb9VWE610NWKicuW-30" target="dSzfsb9VWE610NWKicuW-36" edge="1">
          <mxGeometry relative="1" as="geometry">
            <mxPoint x="200" y="420" as="sourcePoint" />
            <mxPoint x="-90" y="240" as="targetPoint" />
          </mxGeometry>
        </mxCell>
        <mxCell id="dSzfsb9VWE610NWKicuW-36" value="Contraseña" style="text;strokeColor=none;fillColor=none;spacingLeft=4;spacingRight=4;overflow=hidden;rotatable=0;points=[[0,0.5],[1,0.5]];portConstraint=eastwest;fontSize=12;" parent="1" vertex="1">
          <mxGeometry y="395" width="80" height="30" as="geometry" />
        </mxCell>
        <mxCell id="dSzfsb9VWE610NWKicuW-37" style="edgeStyle=none;rounded=0;orthogonalLoop=1;jettySize=auto;html=1;endArrow=oval;endFill=0;exitX=0.5;exitY=1;exitDx=0;exitDy=0;" parent="1" source="dSzfsb9VWE610NWKicuW-30" target="dSzfsb9VWE610NWKicuW-38" edge="1">
          <mxGeometry relative="1" as="geometry">
            <mxPoint x="110" y="440" as="sourcePoint" />
            <mxPoint x="-90" y="270" as="targetPoint" />
          </mxGeometry>
        </mxCell>
        <mxCell id="dSzfsb9VWE610NWKicuW-38" value="FK_CorreoInstitucional" style="text;strokeColor=none;fillColor=none;spacingLeft=4;spacingRight=4;overflow=hidden;rotatable=0;points=[[0,0.5],[1,0.5]];portConstraint=eastwest;fontSize=12;" parent="1" vertex="1">
          <mxGeometry x="100" y="470" width="140" height="30" as="geometry" />
        </mxCell>
        <mxCell id="dSzfsb9VWE610NWKicuW-43" value="Departamento" style="whiteSpace=wrap;html=1;" parent="1" vertex="1">
          <mxGeometry x="587" y="110" width="120" height="60" as="geometry" />
        </mxCell>
        <mxCell id="dSzfsb9VWE610NWKicuW-44" style="edgeStyle=none;rounded=0;orthogonalLoop=1;jettySize=auto;html=1;endArrow=oval;endFill=1;entryX=0;entryY=0.5;entryDx=0;entryDy=0;exitX=1;exitY=0.5;exitDx=0;exitDy=0;" parent="1" source="dSzfsb9VWE610NWKicuW-43" target="dSzfsb9VWE610NWKicuW-45" edge="1">
          <mxGeometry relative="1" as="geometry">
            <mxPoint x="727" y="170" as="sourcePoint" />
            <mxPoint x="377" y="-30" as="targetPoint" />
          </mxGeometry>
        </mxCell>
        <mxCell id="dSzfsb9VWE610NWKicuW-45" value="Nombre" style="text;strokeColor=none;fillColor=none;spacingLeft=4;spacingRight=4;overflow=hidden;rotatable=0;points=[[0,0.5],[1,0.5]];portConstraint=eastwest;fontSize=12;" parent="1" vertex="1">
          <mxGeometry x="747" y="125" width="63" height="30" as="geometry" />
        </mxCell>
        <mxCell id="dSzfsb9VWE610NWKicuW-46" style="edgeStyle=none;rounded=0;orthogonalLoop=1;jettySize=auto;html=1;endArrow=oval;endFill=0;exitX=0.5;exitY=0;exitDx=0;exitDy=0;" parent="1" source="dSzfsb9VWE610NWKicuW-43" target="dSzfsb9VWE610NWKicuW-47" edge="1">
          <mxGeometry relative="1" as="geometry">
            <mxPoint x="577" y="170" as="sourcePoint" />
            <mxPoint x="377" as="targetPoint" />
          </mxGeometry>
        </mxCell>
        <mxCell id="dSzfsb9VWE610NWKicuW-47" value="Id" style="text;strokeColor=none;fillColor=none;spacingLeft=4;spacingRight=4;overflow=hidden;rotatable=0;points=[[0,0.5],[1,0.5]];portConstraint=eastwest;fontSize=12;" parent="1" vertex="1">
          <mxGeometry x="632" y="20" width="30" height="30" as="geometry" />
        </mxCell>
        <mxCell id="dSzfsb9VWE610NWKicuW-48" style="edgeStyle=none;rounded=0;orthogonalLoop=1;jettySize=auto;html=1;endArrow=oval;endFill=1;entryX=0;entryY=0.5;entryDx=0;entryDy=0;exitX=1;exitY=0;exitDx=0;exitDy=0;" parent="1" source="dSzfsb9VWE610NWKicuW-43" target="dSzfsb9VWE610NWKicuW-49" edge="1">
          <mxGeometry relative="1" as="geometry">
            <mxPoint x="707" y="85" as="sourcePoint" />
            <mxPoint x="377" y="-85" as="targetPoint" />
          </mxGeometry>
        </mxCell>
        <mxCell id="dSzfsb9VWE610NWKicuW-49" value="Codigo" style="text;strokeColor=none;fillColor=none;spacingLeft=4;spacingRight=4;overflow=hidden;rotatable=0;points=[[0,0.5],[1,0.5]];portConstraint=eastwest;fontSize=12;" parent="1" vertex="1">
          <mxGeometry x="747" y="95" width="63" height="30" as="geometry" />
        </mxCell>
        <mxCell id="dSzfsb9VWE610NWKicuW-50" style="edgeStyle=none;rounded=0;orthogonalLoop=1;jettySize=auto;html=1;endArrow=oval;endFill=1;exitX=0.75;exitY=0;exitDx=0;exitDy=0;" parent="1" source="dSzfsb9VWE610NWKicuW-43" edge="1">
          <mxGeometry relative="1" as="geometry">
            <mxPoint x="707" y="185" as="sourcePoint" />
            <mxPoint x="677" y="80" as="targetPoint" />
          </mxGeometry>
        </mxCell>
        <mxCell id="dSzfsb9VWE610NWKicuW-51" value="Jefe&#xa;Departamento" style="text;strokeColor=none;fillColor=none;spacingLeft=4;spacingRight=4;overflow=hidden;rotatable=0;points=[[0,0.5],[1,0.5]];portConstraint=eastwest;fontSize=12;" parent="1" vertex="1">
          <mxGeometry x="670" y="35" width="93" height="45" as="geometry" />
        </mxCell>
        <mxCell id="dSzfsb9VWE610NWKicuW-53" value="" style="fontSize=12;html=1;endArrow=ERoneToMany;startArrow=ERmandOne;rounded=0;exitX=0;exitY=0.25;exitDx=0;exitDy=0;entryX=1;entryY=0.25;entryDx=0;entryDy=0;" parent="1" source="dSzfsb9VWE610NWKicuW-43" target="dSzfsb9VWE610NWKicuW-1" edge="1">
          <mxGeometry width="100" height="100" relative="1" as="geometry">
            <mxPoint x="540" y="120" as="sourcePoint" />
            <mxPoint x="280" y="140" as="targetPoint" />
          </mxGeometry>
        </mxCell>
        <mxCell id="dSzfsb9VWE610NWKicuW-54" value="Actividad Solicitada" style="whiteSpace=wrap;html=1;" parent="1" vertex="1">
          <mxGeometry x="404.69" y="290" width="120" height="60" as="geometry" />
        </mxCell>
        <mxCell id="dSzfsb9VWE610NWKicuW-56" style="edgeStyle=none;rounded=0;orthogonalLoop=1;jettySize=auto;html=1;endArrow=oval;endFill=0;" parent="1" source="dSzfsb9VWE610NWKicuW-54" target="dSzfsb9VWE610NWKicuW-57" edge="1">
          <mxGeometry relative="1" as="geometry">
            <mxPoint x="556.69" y="380" as="sourcePoint" />
            <mxPoint x="356.69" y="210" as="targetPoint" />
          </mxGeometry>
        </mxCell>
        <mxCell id="dSzfsb9VWE610NWKicuW-57" value="Id" style="text;strokeColor=none;fillColor=none;spacingLeft=4;spacingRight=4;overflow=hidden;rotatable=0;points=[[0,0.5],[1,0.5]];portConstraint=eastwest;fontSize=12;" parent="1" vertex="1">
          <mxGeometry x="550" y="305" width="20" height="25" as="geometry" />
        </mxCell>
        <mxCell id="dSzfsb9VWE610NWKicuW-58" style="edgeStyle=none;rounded=0;orthogonalLoop=1;jettySize=auto;html=1;endArrow=oval;endFill=1;" parent="1" source="dSzfsb9VWE610NWKicuW-54" target="dSzfsb9VWE610NWKicuW-59" edge="1">
          <mxGeometry relative="1" as="geometry">
            <mxPoint x="524.69" y="374.9999999999999" as="sourcePoint" />
            <mxPoint x="356.69" y="265" as="targetPoint" />
          </mxGeometry>
        </mxCell>
        <mxCell id="dSzfsb9VWE610NWKicuW-59" value="Titulo" style="text;strokeColor=none;fillColor=none;spacingLeft=4;spacingRight=4;overflow=hidden;rotatable=0;points=[[0,0.5],[1,0.5]];portConstraint=eastwest;fontSize=12;" parent="1" vertex="1">
          <mxGeometry x="320.00000000000006" y="370" width="43" height="30" as="geometry" />
        </mxCell>
        <mxCell id="dSzfsb9VWE610NWKicuW-61" style="edgeStyle=none;rounded=0;orthogonalLoop=1;jettySize=auto;html=1;endArrow=oval;endFill=1;" parent="1" source="dSzfsb9VWE610NWKicuW-54" target="dSzfsb9VWE610NWKicuW-62" edge="1">
          <mxGeometry relative="1" as="geometry">
            <mxPoint x="514.69" y="349.9999999999999" as="sourcePoint" />
            <mxPoint x="356.69" y="240" as="targetPoint" />
          </mxGeometry>
        </mxCell>
        <mxCell id="dSzfsb9VWE610NWKicuW-62" value="F_Ini" style="text;strokeColor=none;fillColor=none;spacingLeft=4;spacingRight=4;overflow=hidden;rotatable=0;points=[[0,0.5],[1,0.5]];portConstraint=eastwest;fontSize=12;" parent="1" vertex="1">
          <mxGeometry x="377.00000000000006" y="245" width="43" height="30" as="geometry" />
        </mxCell>
        <mxCell id="dSzfsb9VWE610NWKicuW-68" style="edgeStyle=none;rounded=0;orthogonalLoop=1;jettySize=auto;html=1;endArrow=oval;endFill=1;" parent="1" source="dSzfsb9VWE610NWKicuW-54" target="dSzfsb9VWE610NWKicuW-69" edge="1">
          <mxGeometry relative="1" as="geometry">
            <mxPoint x="596.19" y="279.9999999999999" as="sourcePoint" />
            <mxPoint x="548.19" y="260" as="targetPoint" />
          </mxGeometry>
        </mxCell>
        <mxCell id="dSzfsb9VWE610NWKicuW-69" value="Prevista" style="text;strokeColor=none;fillColor=none;spacingLeft=4;spacingRight=4;overflow=hidden;rotatable=0;points=[[0,0.5],[1,0.5]];portConstraint=eastwest;fontSize=12;" parent="1" vertex="1">
          <mxGeometry x="550" y="330" width="56" height="30" as="geometry" />
        </mxCell>
        <mxCell id="dSzfsb9VWE610NWKicuW-70" style="edgeStyle=none;rounded=0;orthogonalLoop=1;jettySize=auto;html=1;endArrow=oval;endFill=1;" parent="1" source="dSzfsb9VWE610NWKicuW-54" target="dSzfsb9VWE610NWKicuW-71" edge="1">
          <mxGeometry relative="1" as="geometry">
            <mxPoint x="446.19" y="459.9999999999999" as="sourcePoint" />
            <mxPoint x="398.19" y="440" as="targetPoint" />
          </mxGeometry>
        </mxCell>
        <mxCell id="dSzfsb9VWE610NWKicuW-71" value="Descripcion" style="text;strokeColor=none;fillColor=none;spacingLeft=4;spacingRight=4;overflow=hidden;rotatable=0;points=[[0,0.5],[1,0.5]];portConstraint=eastwest;fontSize=12;" parent="1" vertex="1">
          <mxGeometry x="387.00000000000006" y="225" width="73" height="30" as="geometry" />
        </mxCell>
        <mxCell id="dSzfsb9VWE610NWKicuW-72" value="Transporte" style="whiteSpace=wrap;html=1;" parent="1" vertex="1">
          <mxGeometry x="613" y="452.5" width="120" height="60" as="geometry" />
        </mxCell>
        <mxCell id="dSzfsb9VWE610NWKicuW-73" style="edgeStyle=none;rounded=0;orthogonalLoop=1;jettySize=auto;html=1;endArrow=oval;endFill=1;" parent="1" source="dSzfsb9VWE610NWKicuW-72" target="dSzfsb9VWE610NWKicuW-74" edge="1">
          <mxGeometry relative="1" as="geometry">
            <mxPoint x="660" y="460" as="sourcePoint" />
            <mxPoint x="480" y="260" as="targetPoint" />
          </mxGeometry>
        </mxCell>
        <mxCell id="dSzfsb9VWE610NWKicuW-74" value="Comentarios" style="text;strokeColor=none;fillColor=none;spacingLeft=4;spacingRight=4;overflow=hidden;rotatable=0;points=[[0,0.5],[1,0.5]];portConstraint=eastwest;fontSize=12;" parent="1" vertex="1">
          <mxGeometry x="738.5" y="510" width="80" height="20" as="geometry" />
        </mxCell>
        <mxCell id="dSzfsb9VWE610NWKicuW-75" style="edgeStyle=none;rounded=0;orthogonalLoop=1;jettySize=auto;html=1;endArrow=oval;endFill=0;" parent="1" source="dSzfsb9VWE610NWKicuW-72" target="dSzfsb9VWE610NWKicuW-76" edge="1">
          <mxGeometry relative="1" as="geometry">
            <mxPoint x="680" y="460" as="sourcePoint" />
            <mxPoint x="480" y="290" as="targetPoint" />
          </mxGeometry>
        </mxCell>
        <mxCell id="dSzfsb9VWE610NWKicuW-76" value="Id Empresa" style="text;strokeColor=none;fillColor=none;spacingLeft=4;spacingRight=4;overflow=hidden;rotatable=0;points=[[0,0.5],[1,0.5]];portConstraint=eastwest;fontSize=12;" parent="1" vertex="1">
          <mxGeometry x="730" y="540" width="80" height="30" as="geometry" />
        </mxCell>
        <mxCell id="dSzfsb9VWE610NWKicuW-77" style="edgeStyle=none;rounded=0;orthogonalLoop=1;jettySize=auto;html=1;endArrow=oval;endFill=1;" parent="1" source="dSzfsb9VWE610NWKicuW-72" target="dSzfsb9VWE610NWKicuW-78" edge="1">
          <mxGeometry relative="1" as="geometry">
            <mxPoint x="730" y="355" as="sourcePoint" />
            <mxPoint x="530" y="185" as="targetPoint" />
          </mxGeometry>
        </mxCell>
        <mxCell id="dSzfsb9VWE610NWKicuW-78" value="Importe" style="text;strokeColor=none;fillColor=none;spacingLeft=4;spacingRight=4;overflow=hidden;rotatable=0;points=[[0,0.5],[1,0.5]];portConstraint=eastwest;fontSize=12;" parent="1" vertex="1">
          <mxGeometry x="767" y="480" width="60" height="30" as="geometry" />
        </mxCell>
        <mxCell id="dSzfsb9VWE610NWKicuW-79" style="edgeStyle=none;rounded=0;orthogonalLoop=1;jettySize=auto;html=1;endArrow=oval;endFill=1;" parent="1" source="dSzfsb9VWE610NWKicuW-72" target="dSzfsb9VWE610NWKicuW-80" edge="1">
          <mxGeometry relative="1" as="geometry">
            <mxPoint x="667" y="389.9999999999999" as="sourcePoint" />
            <mxPoint x="457" y="175" as="targetPoint" />
          </mxGeometry>
        </mxCell>
        <mxCell id="dSzfsb9VWE610NWKicuW-80" value="Tipos" style="text;strokeColor=none;fillColor=none;spacingLeft=4;spacingRight=4;overflow=hidden;rotatable=0;points=[[0,0.5],[1,0.5]];portConstraint=eastwest;fontSize=12;" parent="1" vertex="1">
          <mxGeometry x="787" y="450" width="40" height="30" as="geometry" />
        </mxCell>
        <mxCell id="dSzfsb9VWE610NWKicuW-81" style="edgeStyle=none;rounded=0;orthogonalLoop=1;jettySize=auto;html=1;endArrow=oval;endFill=1;" parent="1" source="dSzfsb9VWE610NWKicuW-54" target="dSzfsb9VWE610NWKicuW-82" edge="1">
          <mxGeometry relative="1" as="geometry">
            <mxPoint x="414.69" y="464.9999999999999" as="sourcePoint" />
            <mxPoint x="204.69" y="250" as="targetPoint" />
          </mxGeometry>
        </mxCell>
        <mxCell id="dSzfsb9VWE610NWKicuW-82" value="H_Ini" style="text;strokeColor=none;fillColor=none;spacingLeft=4;spacingRight=4;overflow=hidden;rotatable=0;points=[[0,0.5],[1,0.5]];portConstraint=eastwest;fontSize=12;" parent="1" vertex="1">
          <mxGeometry x="530" y="365" width="40" height="15" as="geometry" />
        </mxCell>
        <mxCell id="dSzfsb9VWE610NWKicuW-83" style="edgeStyle=none;rounded=0;orthogonalLoop=1;jettySize=auto;html=1;endArrow=oval;endFill=1;" parent="1" source="dSzfsb9VWE610NWKicuW-54" target="dSzfsb9VWE610NWKicuW-84" edge="1">
          <mxGeometry relative="1" as="geometry">
            <mxPoint x="473.19" y="414.9999999999999" as="sourcePoint" />
            <mxPoint x="425.19" y="395" as="targetPoint" />
          </mxGeometry>
        </mxCell>
        <mxCell id="dSzfsb9VWE610NWKicuW-84" value="H_Fin" style="text;strokeColor=none;fillColor=none;spacingLeft=4;spacingRight=4;overflow=hidden;rotatable=0;points=[[0,0.5],[1,0.5]];portConstraint=eastwest;fontSize=12;" parent="1" vertex="1">
          <mxGeometry x="570" y="360" width="43" height="20" as="geometry" />
        </mxCell>
        <mxCell id="KB-nOq9MS0V8u7GQi-zs-3" style="edgeStyle=none;rounded=0;orthogonalLoop=1;jettySize=auto;html=1;endArrow=oval;endFill=1;" edge="1" parent="1" target="KB-nOq9MS0V8u7GQi-zs-4" source="dSzfsb9VWE610NWKicuW-54">
          <mxGeometry relative="1" as="geometry">
            <mxPoint x="464.69" y="290" as="sourcePoint" />
            <mxPoint x="416.69" y="270" as="targetPoint" />
          </mxGeometry>
        </mxCell>
        <mxCell id="KB-nOq9MS0V8u7GQi-zs-5" style="edgeStyle=none;rounded=0;orthogonalLoop=1;jettySize=auto;html=1;endArrow=oval;endFill=1;" edge="1" parent="1" target="KB-nOq9MS0V8u7GQi-zs-6" source="dSzfsb9VWE610NWKicuW-54">
          <mxGeometry relative="1" as="geometry">
            <mxPoint x="524.69" y="450" as="sourcePoint" />
            <mxPoint x="440" y="380" as="targetPoint" />
          </mxGeometry>
        </mxCell>
        <mxCell id="KB-nOq9MS0V8u7GQi-zs-6" value="Estado" style="text;strokeColor=none;fillColor=none;spacingLeft=4;spacingRight=4;overflow=hidden;rotatable=0;points=[[0,0.5],[1,0.5]];portConstraint=eastwest;fontSize=12;" vertex="1" parent="1">
          <mxGeometry x="334" y="345" width="53" height="20" as="geometry" />
        </mxCell>
        <mxCell id="KB-nOq9MS0V8u7GQi-zs-10" value="Solicita" style="shape=rhombus;perimeter=rhombusPerimeter;whiteSpace=wrap;html=1;align=center;rotation=30;" vertex="1" parent="1">
          <mxGeometry x="270" y="210" width="70" height="35" as="geometry" />
        </mxCell>
        <mxCell id="KB-nOq9MS0V8u7GQi-zs-11" value="" style="fontSize=12;html=1;endArrow=ERoneToMany;rounded=0;exitX=1;exitY=1;exitDx=0;exitDy=0;entryX=0;entryY=0.5;entryDx=0;entryDy=0;" edge="1" parent="1" source="dSzfsb9VWE610NWKicuW-1" target="KB-nOq9MS0V8u7GQi-zs-10">
          <mxGeometry width="100" height="100" relative="1" as="geometry">
            <mxPoint x="360" y="330" as="sourcePoint" />
            <mxPoint x="460" y="230" as="targetPoint" />
          </mxGeometry>
        </mxCell>
        <mxCell id="KB-nOq9MS0V8u7GQi-zs-12" value="" style="fontSize=12;html=1;endArrow=ERoneToMany;rounded=0;exitX=0;exitY=0;exitDx=0;exitDy=0;entryX=1;entryY=0.5;entryDx=0;entryDy=0;" edge="1" parent="1" source="dSzfsb9VWE610NWKicuW-54" target="KB-nOq9MS0V8u7GQi-zs-10">
          <mxGeometry width="100" height="100" relative="1" as="geometry">
            <mxPoint x="284.69" y="310" as="sourcePoint" />
            <mxPoint x="360" y="245" as="targetPoint" />
          </mxGeometry>
        </mxCell>
        <mxCell id="KB-nOq9MS0V8u7GQi-zs-13" value="Participa" style="shape=rhombus;perimeter=rhombusPerimeter;whiteSpace=wrap;html=1;align=center;rotation=0;" vertex="1" parent="1">
          <mxGeometry x="280" y="302.5" width="70" height="35" as="geometry" />
        </mxCell>
        <mxCell id="KB-nOq9MS0V8u7GQi-zs-14" value="" style="fontSize=12;html=1;endArrow=ERoneToMany;rounded=0;exitX=0;exitY=0.5;exitDx=0;exitDy=0;entryX=1;entryY=0.5;entryDx=0;entryDy=0;" edge="1" parent="1" source="dSzfsb9VWE610NWKicuW-54" target="KB-nOq9MS0V8u7GQi-zs-13">
          <mxGeometry width="100" height="100" relative="1" as="geometry">
            <mxPoint x="390" y="415" as="sourcePoint" />
            <mxPoint x="320" y="370" as="targetPoint" />
          </mxGeometry>
        </mxCell>
        <mxCell id="KB-nOq9MS0V8u7GQi-zs-15" value="" style="fontSize=12;html=1;endArrow=ERoneToMany;rounded=0;exitX=0.75;exitY=1;exitDx=0;exitDy=0;entryX=0;entryY=0.5;entryDx=0;entryDy=0;edgeStyle=orthogonalEdgeStyle;" edge="1" parent="1" source="dSzfsb9VWE610NWKicuW-1" target="KB-nOq9MS0V8u7GQi-zs-13">
          <mxGeometry width="100" height="100" relative="1" as="geometry">
            <mxPoint x="255" y="290" as="sourcePoint" />
            <mxPoint x="200" y="290" as="targetPoint" />
          </mxGeometry>
        </mxCell>
        <mxCell id="KB-nOq9MS0V8u7GQi-zs-16" value="Representa" style="shape=rhombus;perimeter=rhombusPerimeter;whiteSpace=wrap;html=1;align=center;rotation=0;" vertex="1" parent="1">
          <mxGeometry x="350" y="137.5" width="70" height="35" as="geometry" />
        </mxCell>
        <mxCell id="KB-nOq9MS0V8u7GQi-zs-17" value="" style="fontSize=12;html=1;endArrow=ERoneToMany;rounded=0;exitX=1;exitY=0.75;exitDx=0;exitDy=0;entryX=0;entryY=0.5;entryDx=0;entryDy=0;" edge="1" parent="1" source="dSzfsb9VWE610NWKicuW-1" target="KB-nOq9MS0V8u7GQi-zs-16">
          <mxGeometry width="100" height="100" relative="1" as="geometry">
            <mxPoint x="335" y="157" as="sourcePoint" />
            <mxPoint x="280" y="157" as="targetPoint" />
          </mxGeometry>
        </mxCell>
        <mxCell id="KB-nOq9MS0V8u7GQi-zs-18" value="" style="fontSize=12;html=1;endArrow=ERoneToMany;rounded=0;entryX=1;entryY=0.5;entryDx=0;entryDy=0;edgeStyle=orthogonalEdgeStyle;exitX=0.75;exitY=0;exitDx=0;exitDy=0;" edge="1" parent="1" source="dSzfsb9VWE610NWKicuW-54" target="KB-nOq9MS0V8u7GQi-zs-16">
          <mxGeometry width="100" height="100" relative="1" as="geometry">
            <mxPoint x="440" y="250" as="sourcePoint" />
            <mxPoint x="504.44" y="345" as="targetPoint" />
            <Array as="points" />
          </mxGeometry>
        </mxCell>
        <mxCell id="KB-nOq9MS0V8u7GQi-zs-4" value="F_Fin" style="text;strokeColor=none;fillColor=none;spacingLeft=4;spacingRight=4;overflow=hidden;rotatable=0;points=[[0,0.5],[1,0.5]];portConstraint=eastwest;fontSize=12;" vertex="1" parent="1">
          <mxGeometry x="443.19" y="245" width="43" height="30" as="geometry" />
        </mxCell>
        <mxCell id="KB-nOq9MS0V8u7GQi-zs-21" value="" style="fontSize=12;html=1;endArrow=ERoneToMany;rounded=0;exitX=0.5;exitY=1;exitDx=0;exitDy=0;entryX=1;entryY=0.25;entryDx=0;entryDy=0;edgeStyle=orthogonalEdgeStyle;" edge="1" parent="1" source="dSzfsb9VWE610NWKicuW-43" target="dSzfsb9VWE610NWKicuW-54">
          <mxGeometry width="100" height="100" relative="1" as="geometry">
            <mxPoint x="562" y="305" as="sourcePoint" />
            <mxPoint x="650" y="290" as="targetPoint" />
          </mxGeometry>
        </mxCell>
        <mxCell id="KB-nOq9MS0V8u7GQi-zs-22" value="Actividad Programada" style="whiteSpace=wrap;html=1;" vertex="1" parent="1">
          <mxGeometry x="404.69" y="530" width="120" height="60" as="geometry" />
        </mxCell>
        <mxCell id="KB-nOq9MS0V8u7GQi-zs-23" value="" style="fontSize=12;html=1;endArrow=ERmany;rounded=0;entryX=0.5;entryY=1;entryDx=0;entryDy=0;exitX=0.5;exitY=0;exitDx=0;exitDy=0;" edge="1" parent="1" source="KB-nOq9MS0V8u7GQi-zs-22" target="dSzfsb9VWE610NWKicuW-54">
          <mxGeometry width="100" height="100" relative="1" as="geometry">
            <mxPoint x="430" y="520" as="sourcePoint" />
            <mxPoint x="530" y="420" as="targetPoint" />
          </mxGeometry>
        </mxCell>
        <mxCell id="KB-nOq9MS0V8u7GQi-zs-24" value="Tiene" style="shape=rhombus;perimeter=rhombusPerimeter;whiteSpace=wrap;html=1;align=center;rotation=0;" vertex="1" parent="1">
          <mxGeometry x="530" y="467.5" width="57" height="30" as="geometry" />
        </mxCell>
        <mxCell id="KB-nOq9MS0V8u7GQi-zs-25" value="" style="fontSize=12;html=1;endArrow=ERmany;rounded=0;entryX=0;entryY=0.5;entryDx=0;entryDy=0;exitX=0.75;exitY=1;exitDx=0;exitDy=0;" edge="1" parent="1" source="dSzfsb9VWE610NWKicuW-54" target="KB-nOq9MS0V8u7GQi-zs-24">
          <mxGeometry width="100" height="100" relative="1" as="geometry">
            <mxPoint x="430" y="520" as="sourcePoint" />
            <mxPoint x="490" y="400" as="targetPoint" />
            <Array as="points">
              <mxPoint x="495" y="483" />
            </Array>
          </mxGeometry>
        </mxCell>
        <mxCell id="KB-nOq9MS0V8u7GQi-zs-26" value="" style="fontSize=12;html=1;endArrow=ERmany;rounded=0;entryX=1;entryY=0.5;entryDx=0;entryDy=0;exitX=0;exitY=0.5;exitDx=0;exitDy=0;" edge="1" parent="1" source="dSzfsb9VWE610NWKicuW-72" target="KB-nOq9MS0V8u7GQi-zs-24">
          <mxGeometry width="100" height="100" relative="1" as="geometry">
            <mxPoint x="505" y="360" as="sourcePoint" />
            <mxPoint x="505" y="475" as="targetPoint" />
          </mxGeometry>
        </mxCell>
        <mxCell id="KB-nOq9MS0V8u7GQi-zs-27" value="Alojamiento" style="whiteSpace=wrap;html=1;" vertex="1" parent="1">
          <mxGeometry x="670" y="365" width="120" height="60" as="geometry" />
        </mxCell>
        <mxCell id="KB-nOq9MS0V8u7GQi-zs-28" value="Tiene" style="shape=rhombus;perimeter=rhombusPerimeter;whiteSpace=wrap;html=1;align=center;rotation=0;" vertex="1" parent="1">
          <mxGeometry x="550" y="410" width="60" height="30" as="geometry" />
        </mxCell>
        <mxCell id="KB-nOq9MS0V8u7GQi-zs-29" value="" style="fontSize=12;html=1;endArrow=ERmany;rounded=0;entryX=0;entryY=0.5;entryDx=0;entryDy=0;exitX=0.75;exitY=1;exitDx=0;exitDy=0;" edge="1" parent="1" source="dSzfsb9VWE610NWKicuW-54" target="KB-nOq9MS0V8u7GQi-zs-28">
          <mxGeometry width="100" height="100" relative="1" as="geometry">
            <mxPoint x="505" y="360" as="sourcePoint" />
            <mxPoint x="540" y="493" as="targetPoint" />
            <Array as="points">
              <mxPoint x="495" y="425" />
            </Array>
          </mxGeometry>
        </mxCell>
        <mxCell id="KB-nOq9MS0V8u7GQi-zs-30" value="" style="fontSize=12;html=1;endArrow=ERmany;rounded=0;entryX=1;entryY=0.5;entryDx=0;entryDy=0;exitX=0;exitY=1;exitDx=0;exitDy=0;" edge="1" parent="1" source="KB-nOq9MS0V8u7GQi-zs-27" target="KB-nOq9MS0V8u7GQi-zs-28">
          <mxGeometry width="100" height="100" relative="1" as="geometry">
            <mxPoint x="623" y="493" as="sourcePoint" />
            <mxPoint x="597" y="493" as="targetPoint" />
          </mxGeometry>
        </mxCell>
        <mxCell id="KB-nOq9MS0V8u7GQi-zs-31" value="Comentarios" style="text;strokeColor=none;fillColor=none;spacingLeft=4;spacingRight=4;overflow=hidden;rotatable=0;points=[[0,0.5],[1,0.5]];portConstraint=eastwest;fontSize=12;" vertex="1" parent="1">
          <mxGeometry x="720" y="307.5" width="80" height="22.5" as="geometry" />
        </mxCell>
        <mxCell id="KB-nOq9MS0V8u7GQi-zs-32" style="edgeStyle=none;rounded=0;orthogonalLoop=1;jettySize=auto;html=1;endArrow=oval;endFill=1;" edge="1" parent="1" source="KB-nOq9MS0V8u7GQi-zs-27" target="KB-nOq9MS0V8u7GQi-zs-31">
          <mxGeometry relative="1" as="geometry">
            <mxPoint x="743" y="499" as="sourcePoint" />
            <mxPoint x="777" y="502" as="targetPoint" />
          </mxGeometry>
        </mxCell>
        <mxCell id="KB-nOq9MS0V8u7GQi-zs-33" value="Fotos" style="whiteSpace=wrap;html=1;" vertex="1" parent="1">
          <mxGeometry x="613" y="600" width="120" height="60" as="geometry" />
        </mxCell>
        <mxCell id="KB-nOq9MS0V8u7GQi-zs-34" value="URL" style="text;strokeColor=none;fillColor=none;spacingLeft=4;spacingRight=4;overflow=hidden;rotatable=0;points=[[0,0.5],[1,0.5]];portConstraint=eastwest;fontSize=12;" vertex="1" parent="1">
          <mxGeometry x="770" y="640" width="40" height="30" as="geometry" />
        </mxCell>
        <mxCell id="KB-nOq9MS0V8u7GQi-zs-35" style="edgeStyle=none;rounded=0;orthogonalLoop=1;jettySize=auto;html=1;endArrow=oval;endFill=0;" edge="1" parent="1" source="KB-nOq9MS0V8u7GQi-zs-33" target="KB-nOq9MS0V8u7GQi-zs-34">
          <mxGeometry relative="1" as="geometry">
            <mxPoint x="723" y="523" as="sourcePoint" />
            <mxPoint x="760" y="550" as="targetPoint" />
          </mxGeometry>
        </mxCell>
        <mxCell id="KB-nOq9MS0V8u7GQi-zs-36" value="" style="fontSize=12;html=1;endArrow=ERmany;rounded=0;entryX=0;entryY=0.5;entryDx=0;entryDy=0;exitX=0.75;exitY=1;exitDx=0;exitDy=0;" edge="1" parent="1" source="KB-nOq9MS0V8u7GQi-zs-22" target="KB-nOq9MS0V8u7GQi-zs-33">
          <mxGeometry width="100" height="100" relative="1" as="geometry">
            <mxPoint x="480" y="600" as="sourcePoint" />
            <mxPoint x="515" y="733" as="targetPoint" />
            <Array as="points">
              <mxPoint x="495" y="630" />
            </Array>
          </mxGeometry>
        </mxCell>
      </root>
    </mxGraphModel>
  </diagram>
</mxfile>
